<svg width="24" height="24" viewBox="0 0 24 24" fill="none" xmlns="http://www.w3.org/2000/svg">
<path d="M13.4001 12.71C13.4938 12.617 13.5682 12.5064 13.619 12.3846C13.6698 12.2627 13.6959 12.132 13.6959 12C13.6959 11.868 13.6698 11.7373 13.619 11.6154C13.5682 11.4936 13.4938 11.383 13.4001 11.29L8.81011 6.71C8.71638 6.61704 8.64199 6.50644 8.59122 6.38458C8.54045 6.26272 8.51431 6.13201 8.51431 6C8.51431 5.86799 8.54045 5.73728 8.59122 5.61542C8.64199 5.49356 8.71638 5.38296 8.81011 5.29C8.99747 5.10375 9.25092 4.99921 9.51511 4.99921C9.7793 4.99921 10.0327 5.10375 10.2201 5.29L14.8101 9.88C15.3719 10.4425 15.6875 11.205 15.6875 12C15.6875 12.795 15.3719 13.5575 14.8101 14.12L10.2201 18.71C10.0338 18.8947 9.78245 18.9989 9.52011 19C9.3885 19.0008 9.25804 18.9755 9.1362 18.9258C9.01436 18.876 8.90355 18.8027 8.81011 18.71C8.71638 18.617 8.64199 18.5064 8.59122 18.3846C8.54045 18.2627 8.51431 18.132 8.51431 18C8.51431 17.868 8.54045 17.7373 8.59122 17.6154C8.64199 17.4936 8.71638 17.383 8.81011 17.29L13.4001 12.71Z" fill="white"/>
</svg>
